<?xml version="1.0" encoding="UTF-8"?>
<svg version="1.1" xmlns="http://www.w3.org/2000/svg" width="429" height="199">
<path d="M0 0 C141.57 0 283.14 0 429 0 C429 65.67 429 131.34 429 199 C287.43 199 145.86 199 0 199 C0 133.33 0 67.66 0 0 Z " fill="#000000" transform="translate(0,0)"/>
<path d="M0 0 C0 0.66 0 1.32 0 2 C1.16015625 2.31324219 1.16015625 2.31324219 2.34375 2.6328125 C7.38379416 4.5174444 11.85171135 7.18308541 16.5 9.875 C18.55775634 11.05354667 20.61637278 12.23059268 22.67578125 13.40625 C23.72330566 14.004375 24.77083008 14.6025 25.85009766 15.21875 C30.76355787 17.9972809 35.72358337 20.68796735 40.6875 23.375 C48.20735658 27.4517426 55.66128075 31.60296146 63 36 C62.67 36.99 62.34 37.98 62 39 C59.28141703 39.76211694 57.59474846 40.21704583 54.90136719 39.23413086 C54.20688477 38.81526611 53.51240234 38.39640137 52.796875 37.96484375 C51.9937085 37.49199951 51.19054199 37.01915527 50.36303711 36.53198242 C49.50073486 36.00580322 48.63843262 35.47962402 47.75 34.9375 C45.87198355 33.82661936 43.99303584 32.71731193 42.11328125 31.609375 C41.12279785 31.02091797 40.13231445 30.43246094 39.11181641 29.82617188 C33.77011263 26.69138887 28.35117816 23.69568799 22.9375 20.6875 C18.95184815 18.4696776 14.97315816 16.24012291 11 14 C9.87352051 13.37174316 8.74704102 12.74348633 7.58642578 12.09619141 C5.93682861 11.16105713 5.93682861 11.16105713 4.25390625 10.20703125 C3.24787354 9.64089111 2.24184082 9.07475098 1.20532227 8.49145508 C0.47756592 7.9992749 -0.25019043 7.50709473 -1 7 C-1 6.34 -1 5.68 -1 5 C-2.32 5 -3.64 5 -5 5 C-5 5.66 -5 6.32 -5 7 C-5.7434668 7.4218457 -6.48693359 7.84369141 -7.25292969 8.27832031 C-10.11173268 9.90197945 -12.96950702 11.52741528 -15.82635498 13.1545105 C-17.10645243 13.88350847 -18.38676588 14.61212727 -19.66729736 15.34036255 C-28.81034032 20.54327841 -37.88301376 25.83882415 -46.78027344 31.45605469 C-50.87063784 33.97936612 -54.08869859 35.63360132 -59 36 C-59.33 36.99 -59.66 37.98 -60 39 C-62.0625 39.6875 -62.0625 39.6875 -64 40 C-64.39533353 49.2136917 -64.69660863 58.42443629 -64.88080692 67.64478111 C-64.96926199 71.92754501 -65.08895908 76.2044802 -65.2824707 80.48388672 C-66.90809432 98.03342256 -66.90809432 98.03342256 -62.49407959 114.43981934 C-58.67253309 118.13464702 -54.26504591 119.80596974 -49.23141479 121.28643799 C-45.84194677 122.37032236 -43.08620695 124.08124587 -40.03125 125.90625 C-37.85541161 127.10642644 -35.67832698 128.30434631 -33.5 129.5 C-20.57283645 136.59863207 -20.57283645 136.59863207 -14.6640625 140.25390625 C-13.88482422 140.7334375 -13.10558594 141.21296875 -12.30273438 141.70703125 C-10.8954938 142.58292808 -9.49749784 143.47393692 -8.11132812 144.3828125 C-4.49941217 146.64693452 -4.49941217 146.64693452 -0.375 146.44921875 C0.40875 145.97097656 1.1925 145.49273437 2 145 C2.82757813 144.49984375 3.65515625 143.9996875 4.5078125 143.484375 C5.37148437 142.91203125 6.23515625 142.3396875 7.125 141.75 C10.72949076 139.41570878 14.33876706 137.21336549 18.125 135.1875 C22.860635 132.65151365 27.4993423 129.9792952 32.125 127.25 C33.19790283 126.62037354 33.19790283 126.62037354 34.29248047 125.97802734 C38.12005564 123.72566291 41.92086824 121.43806259 45.6953125 119.09765625 C46.45827637 118.63133789 47.22124023 118.16501953 48.00732422 117.68457031 C49.47211679 116.78840939 50.92989274 115.88064885 52.37939453 114.95996094 C57.33666104 111.94877356 57.33666104 111.94877356 60.984375 112.23046875 C61.64953125 112.48441406 62.3146875 112.73835938 63 113 C63 113.99 63 114.98 63 116 C60.76472781 118.1458613 58.64687482 119.1457817 55.7734375 120.33203125 C51.35129429 122.19683907 47.48839564 124.70631465 43.45507812 127.30273438 C39.19650104 130 39.19650104 130 37 130 C37 130.66 37 131.32 37 132 C36.10925781 132.33644531 35.21851563 132.67289063 34.30078125 133.01953125 C27.64719156 135.86963351 21.59977774 139.97772875 15.44750977 143.75610352 C13.77314002 144.78231486 12.09560261 145.80335226 10.41796875 146.82421875 C9.42563232 147.43354248 8.4332959 148.04286621 7.41088867 148.6706543 C5 150 5 150 3 150 C2.67 150.99 2.34 151.98 2 153 C-1.09384764 153.96018381 -2.60567074 154.15405462 -5.6652832 152.95874023 C-7.09360474 152.14191772 -7.09360474 152.14191772 -8.55078125 151.30859375 C-9.62996826 150.70031738 -10.70915527 150.09204102 -11.82104492 149.46533203 C-12.98507127 148.78974625 -14.14888448 148.11379314 -15.3125 147.4375 C-16.51928253 146.74998724 -17.72673034 146.06364103 -18.93481445 145.37841797 C-22.63517312 143.27275454 -26.31877442 141.13888748 -30 139 C-31.10698242 138.35853027 -32.21396484 137.71706055 -33.35449219 137.05615234 C-37.38524352 134.71728336 -41.41400887 132.37544 -45.42895508 130.00952148 C-51.0394738 126.70371138 -56.68766463 123.47321248 -62.36645508 120.28662109 C-63.47146236 119.66583931 -63.47146236 119.66583931 -64.59879303 119.03251648 C-66.39896784 118.02127253 -68.19945214 117.01057956 -70 116 C-70.65340176 106.12769636 -71.14834175 96.26062731 -71.45074081 86.37099552 C-71.59605333 81.77538168 -71.79210088 77.19467824 -72.11230469 72.60766602 C-74.0753017 43.74554825 -74.0753017 43.74554825 -68.76726913 36.26203918 C-62.44888785 29.47490802 -53.75485902 25.78154958 -45.30056763 22.38386536 C-40.97702359 20.57108541 -37.19630525 18.22106739 -33.3125 15.625 C-28.30485828 12.61459213 -23.64877931 10.48652087 -18 9 C-18 8.34 -18 7.68 -18 7 C-15.9642759 5.48885488 -13.96229077 4.14133507 -11.8125 2.8125 C-11.23435547 2.43158203 -10.65621094 2.05066406 -10.06054688 1.65820312 C-6.34526458 -0.65492743 -4.19005984 -1.49137723 0 0 Z " fill="#BDA865" transform="translate(109,20)"/>
<path d="M0 0 C1.32 0 2.64 0 4 0 C4 0.66 4 1.32 4 2 C4.69931641 2.26248535 5.39863281 2.5249707 6.11914062 2.79541016 C9.24290334 4.10156653 12.130671 5.63487472 15.09375 7.2734375 C15.67412018 7.59356812 16.25449036 7.91369873 16.85244751 8.24353027 C18.7367103 9.28423405 20.61845474 10.3293922 22.5 11.375 C23.80058008 12.0952842 25.10119887 12.81549851 26.40185547 13.53564453 C55.52403095 29.6826873 55.52403095 29.6826873 62 34 C62 35.32 62 36.64 62 38 C58.17263111 37.41925761 55.45182958 36.31907926 52.140625 34.33203125 C51.20130127 33.77491455 50.26197754 33.21779785 49.29418945 32.64379883 C48.28960693 32.03947021 47.28502441 31.4351416 46.25 30.8125 C44.10403359 29.53969365 41.95685673 28.26892632 39.80859375 27 C38.13966064 26.01386719 38.13966064 26.01386719 36.43701172 25.0078125 C29.7183185 21.08292736 22.91207217 17.31467277 16.11230469 13.5324707 C15.12262695 12.98163818 14.13294922 12.43080566 13.11328125 11.86328125 C12.24485596 11.38157471 11.37643066 10.89986816 10.48168945 10.40356445 C8.73422186 9.41525248 7.01846197 8.36980593 5.32910156 7.28515625 C3.07386478 5.6989214 3.07386478 5.6989214 0.62109375 6.57421875 C-0.67634766 7.27998047 -0.67634766 7.27998047 -2 8 C-3.59134766 8.84498047 -3.59134766 8.84498047 -5.21484375 9.70703125 C-6.45795779 10.40489908 -7.69869537 11.10701073 -8.9375 11.8125 C-9.96000854 12.39149048 -9.96000854 12.39149048 -11.00317383 12.98217773 C-24.40749121 20.61182415 -37.7121768 28.44032166 -50.734375 36.70703125 C-53 38 -53 38 -55 38 C-55 60.44 -55 82.88 -55 106 C-53.35 106.33 -51.7 106.66 -50 107 C-50 107.66 -50 108.32 -50 109 C-49.14148437 109.26554687 -48.28296875 109.53109375 -47.3984375 109.8046875 C-43.97089192 111.01023801 -40.85826202 112.47244386 -37.625 114.125 C-36.56539062 114.66382813 -35.50578125 115.20265625 -34.4140625 115.7578125 C-33.61742188 116.16773438 -32.82078125 116.57765625 -32 117 C-32 117.66 -32 118.32 -32 119 C-31.319375 119.268125 -30.63875 119.53625 -29.9375 119.8125 C-26.60289191 121.16053306 -23.30256763 122.57536298 -20 124 C-20 124.66 -20 125.32 -20 126 C-19.14148438 126.26554687 -18.28296875 126.53109375 -17.3984375 126.8046875 C-13.97089192 128.01023801 -10.85826202 129.47244386 -7.625 131.125 C-6.56539062 131.66382813 -5.50578125 132.20265625 -4.4140625 132.7578125 C-3.61742187 133.16773438 -2.82078125 133.57765625 -2 134 C-2 134.66 -2 135.32 -2 136 C3.63595314 136.40871416 7.15403968 135.32166181 11.875 132.4375 C12.53991455 132.04763916 13.2048291 131.65777832 13.88989258 131.25610352 C16.26982244 129.85346909 18.63437174 128.4266173 21 127 C23.04770762 125.78046139 25.09591469 124.56176114 27.14453125 123.34375 C38.81379372 116.40830176 38.81379372 116.40830176 50.3515625 109.2578125 C50.95395752 108.8769751 51.55635254 108.4961377 52.17700195 108.10375977 C53.67176052 107.1521035 55.15858244 106.18801058 56.64453125 105.22265625 C59 104 59 104 63 104 C63 104.66 63 105.32 63 106 C64.485 106.495 64.485 106.495 66 107 C65.23042969 107.34998047 65.23042969 107.34998047 64.4453125 107.70703125 C57.62742102 110.95528594 51.25669156 114.81461806 44.86181641 118.8137207 C39.94861816 121.87071287 34.94599435 124.68492414 29.85327148 127.43139648 C23.99129662 130.65405315 18.28257748 134.14332158 12.546875 137.58398438 C11.61359375 138.14021484 10.6803125 138.69644531 9.71875 139.26953125 C8.88279297 139.77073486 8.04683594 140.27193848 7.18554688 140.78833008 C5 142 5 142 2 143 C-0.51416016 141.86694336 -0.51416016 141.86694336 -3.5390625 140.08984375 C-4.66530029 139.43612793 -5.79153809 138.78241211 -6.9519043 138.10888672 C-8.17633308 137.38519866 -9.4006968 136.6614005 -10.625 135.9375 C-12.51899775 134.83216142 -14.41501737 133.7303474 -16.31114197 132.62866211 C-17.60859377 131.87447457 -18.90535004 131.11908928 -20.20143127 130.36254883 C-27.64768991 126.02126708 -35.18828599 121.85212367 -42.73876953 117.69506836 C-43.69509277 117.16405518 -44.65141602 116.63304199 -45.63671875 116.0859375 C-46.45873779 115.6326709 -47.28075684 115.1794043 -48.12768555 114.71240234 C-49.5494812 113.86476318 -49.5494812 113.86476318 -51 113 C-52.14143211 112.52791611 -52.14143211 112.52791611 -53.30592346 112.04629517 C-56.17228135 110.63513195 -57.93718391 109.45781271 -60 107 C-61.28330516 101.56362852 -61.0489427 96.20396477 -60.87890625 90.6640625 C-60.86210638 89.05841649 -60.8493017 87.45272414 -60.84031677 85.84701538 C-60.80605782 81.63388222 -60.71775359 77.42357085 -60.61798096 73.21154785 C-60.52567813 68.90834733 -60.48475939 64.60468774 -60.43945312 60.30078125 C-60.34311701 51.86589679 -60.18965249 43.4333 -60 35 C-59.20335937 34.69964844 -58.40671875 34.39929687 -57.5859375 34.08984375 C-55.01777252 33.20922233 -55.01777252 33.20922233 -53.625 31.5625 C-52 30 -52 30 -49.171875 28.84375 C-43.37110345 26.4258931 -38.04156563 23.1006897 -32.625 19.9375 C-31.46634869 19.26519389 -30.3074929 18.59324007 -29.1484375 17.92163086 C-23.94571376 14.90308489 -18.75615597 11.8629817 -13.5859375 8.7890625 C-12.80009277 8.32250244 -12.01424805 7.85594238 -11.20458984 7.37524414 C-9.76739275 6.51945136 -8.33268641 5.65945749 -6.90087891 4.79467773 C-2.21842553 2 -2.21842553 2 0 2 C0 1.34 0 0.68 0 0 Z " fill="#292618" transform="translate(104,25)"/>
<path d="M0 0 C2.83558237 0.85772046 5.13969915 1.99485749 7.71704102 3.45556641 C8.70655762 4.01260254 9.69607422 4.56963867 10.71557617 5.14355469 C12.29991455 6.05016846 12.29991455 6.05016846 13.91625977 6.97509766 C15.01115723 7.59497559 16.10605469 8.21485352 17.23413086 8.85351562 C27.93701234 14.9316007 38.56475872 21.13924846 49.17895508 27.37060547 C52.30786433 29.19905787 55.45245002 30.99807273 58.60375977 32.78759766 C56.01600125 33.78254683 54.94178218 33.9295751 52.34326172 32.83813477 C51.51785889 32.33548096 50.69245605 31.83282715 49.84204102 31.31494141 C48.89949463 30.75137939 47.95694824 30.18781738 46.98583984 29.60717773 C45.97287842 28.98609131 44.95991699 28.36500488 43.91625977 27.72509766 C41.76128638 26.43390212 39.60499131 25.14491038 37.44750977 23.85791016 C36.32860352 23.18791992 35.20969727 22.51792969 34.05688477 21.82763672 C28.40834132 18.47065749 22.65946367 15.29161339 16.91625977 12.10009766 C14.84960713 10.95080101 12.78318435 9.80109089 10.71704102 8.65087891 C9.84861572 8.16917236 8.98019043 7.68746582 8.08544922 7.19116211 C6.33798163 6.20285014 4.62222174 5.15740359 2.93286133 4.07275391 C0.67762455 2.48651905 0.67762455 2.48651905 -1.77514648 3.36181641 C-3.07258789 4.06757812 -3.07258789 4.06757812 -4.39624023 4.78759766 C-5.98758789 5.63257813 -5.98758789 5.63257813 -7.61108398 6.49462891 C-8.85419803 7.19249673 -10.0949356 7.89460839 -11.33374023 8.60009766 C-12.35624878 9.17908813 -12.35624878 9.17908813 -13.39941406 9.76977539 C-26.80373144 17.3994218 -40.10841703 25.22791931 -53.13061523 33.49462891 C-55.39624023 34.78759766 -55.39624023 34.78759766 -57.39624023 34.78759766 C-57.39624023 57.22759766 -57.39624023 79.66759766 -57.39624023 102.78759766 C-55.74624023 103.11759766 -54.09624023 103.44759766 -52.39624023 103.78759766 C-52.39624023 104.44759766 -52.39624023 105.10759766 -52.39624023 105.78759766 C-51.53772461 106.05314453 -50.67920898 106.31869141 -49.79467773 106.59228516 C-46.36713215 107.79783567 -43.25450225 109.26004151 -40.02124023 110.91259766 C-38.96163086 111.45142578 -37.90202148 111.99025391 -36.81030273 112.54541016 C-36.01366211 112.95533203 -35.21702148 113.36525391 -34.39624023 113.78759766 C-34.39624023 114.44759766 -34.39624023 115.10759766 -34.39624023 115.78759766 C-33.71561523 116.05572266 -33.03499023 116.32384766 -32.33374023 116.60009766 C-28.99913214 117.94813072 -25.69880786 119.36296064 -22.39624023 120.78759766 C-22.39624023 121.44759766 -22.39624023 122.10759766 -22.39624023 122.78759766 C-21.53772461 123.05314453 -20.67920898 123.31869141 -19.79467773 123.59228516 C-16.36713215 124.79783567 -13.25450225 126.26004151 -10.02124023 127.91259766 C-8.96163086 128.45142578 -7.90202148 128.99025391 -6.81030273 129.54541016 C-6.01366211 129.95533203 -5.21702148 130.36525391 -4.39624023 130.78759766 C-4.39624023 131.44759766 -4.39624023 132.10759766 -4.39624023 132.78759766 C1.23982421 133.19631989 4.7576454 132.10910996 9.47875977 129.22509766 C10.47504395 128.64139404 10.47504395 128.64139404 11.49145508 128.04589844 C13.87262084 126.64330125 16.23794052 125.21592422 18.60375977 123.78759766 C20.66329352 122.55652297 22.72321266 121.32609285 24.78344727 120.09619141 C29.03698349 117.55285614 33.28356009 114.99843267 37.52563477 112.43603516 C38.52143555 111.84016602 39.51723633 111.24429688 40.54321289 110.63037109 C42.67205538 109.3485824 44.78983868 108.04831966 46.89868164 106.73388672 C47.96151367 106.08387695 49.0243457 105.43386719 50.11938477 104.76416016 C51.07619141 104.16941895 52.03299805 103.57467773 53.01879883 102.96191406 C55.60375977 101.78759766 55.60375977 101.78759766 57.9465332 102.1015625 C58.76686035 102.4411499 58.76686035 102.4411499 59.60375977 102.78759766 C52.00555017 107.36109061 44.37995871 111.88602437 36.73095703 116.37402344 C31.96229398 119.18033076 27.21488357 122.01299097 22.51438904 124.93244934 C20.80595971 125.99331335 19.09412417 127.04846679 17.38134766 128.10229492 C15.18561412 129.45671311 12.99702019 130.82278727 10.81640625 132.20141602 C9.31702515 133.12192749 9.31702515 133.12192749 7.78735352 134.06103516 C6.90619873 134.61194824 6.02504395 135.16286133 5.1171875 135.73046875 C2.04337973 137.02328931 0.73856317 136.82465443 -2.39624023 135.78759766 C-4.65014648 134.76293945 -4.65014648 134.76293945 -6.95874023 133.48681641 C-8.26198242 132.77187012 -8.26198242 132.77187012 -9.59155273 132.04248047 C-10.51709961 131.52524414 -11.44264648 131.00800781 -12.39624023 130.47509766 C-13.36303711 129.94110352 -14.32983398 129.40710938 -15.32592773 128.85693359 C-24.43160347 123.81037889 -33.47357547 118.65173367 -42.49438477 113.45533752 C-45.89981493 111.49818572 -49.30980334 109.54910066 -52.72045898 107.60107422 C-53.68695374 107.04892746 -53.68695374 107.04892746 -54.67297363 106.48562622 C-56.24735605 105.58621373 -57.82179258 104.68689595 -59.39624023 103.78759766 C-59.86202066 94.86975079 -60.21607416 85.95614444 -60.43248367 77.02874374 C-60.53643153 72.8814626 -60.67693632 68.74255383 -60.9050293 64.60009766 C-62.32930575 38.02860704 -62.32930575 38.02860704 -57.61437988 31.21115112 C-53.03851333 27.05019313 -47.77028672 24.83872794 -42.00085449 22.77716064 C-38.16957601 21.32155494 -34.84167676 19.2407736 -31.38061523 17.07275391 C-30.16320953 16.3553534 -28.94318952 15.64236881 -27.72045898 14.93408203 C-27.13184082 14.59078857 -26.54322266 14.24749512 -25.93676758 13.89379883 C-25.34589355 13.54937744 -24.75501953 13.20495605 -24.14624023 12.85009766 C-22.29836565 11.77294096 -20.45073421 10.69538477 -18.60412598 9.61605835 C-16.88183335 8.60997507 -15.15762705 7.60716997 -13.43334961 6.60449219 C-10.83965633 5.05286314 -8.34846085 3.41784121 -5.84936523 1.72119141 C-2.39624023 -0.21240234 -2.39624023 -0.21240234 0 0 Z " fill="#786236" transform="translate(106.396240234375,28.21240234375)"/>
<path d="M0 0 C8.91 0 17.82 0 27 0 C27.33 2.31 27.66 4.62 28 7 C29.54261545 8.64784213 29.54261545 8.64784213 31.5625 9.4375 C33.2640625 10.2109375 33.2640625 10.2109375 35 11 C35 10.34 35 9.68 35 9 C36.32 8.67 37.64 8.34 39 8 C39 5.36 39 2.72 39 0 C40.65 0 42.3 0 44 0 C44.35040695 3.40024521 44.530811 6.61342582 44 10 C39.61904762 14 39.61904762 14 36 14 C36 17.3 36 20.6 36 24 C34.35 24 32.7 24 31 24 C31.04833984 23.12988281 31.04833984 23.12988281 31.09765625 22.2421875 C31.05809738 19.57855708 30.86792893 17.52939288 30 15 C27.77126843 13.03198797 25.55320594 11.6867339 22.93359375 10.2890625 C22.29550781 9.86367187 21.65742188 9.43828125 21 9 C21 8.01 21 7.02 21 6 C16.05 6 11.1 6 6 6 C6 6.99 6 7.98 6 9 C10.62 9 15.24 9 20 9 C20 10.65 20 12.3 20 14 C15.05 14 10.1 14 5 14 C5 17.3 5 20.6 5 24 C3.35 24 1.7 24 0 24 C0 16.08 0 8.16 0 0 Z " fill="#876937" transform="translate(267,84)"/>
<path d="M0 0 C4.888125 -0.061875 4.888125 -0.061875 9.875 -0.125 C10.90093262 -0.14320801 11.92686523 -0.16141602 12.98388672 -0.18017578 C13.79100098 -0.1851709 14.59811523 -0.19016602 15.4296875 -0.1953125 C16.25710449 -0.20578613 17.08452148 -0.21625977 17.93701172 -0.22705078 C20 0 20 0 22 2 C22.08718609 4.70276876 22.09146497 7.30686475 22 10 C22 12.02357323 22.00162697 14.04790529 22.0703125 16.0703125 C22.1229057 18.04631417 22.06373141 20.02432621 22 22 C20 24 20 24 17.93701172 24.22705078 C16.69588623 24.21134033 16.69588623 24.21134033 15.4296875 24.1953125 C14.21901611 24.18781982 14.21901611 24.18781982 12.98388672 24.18017578 C11.44498779 24.15286377 11.44498779 24.15286377 9.875 24.125 C4.986875 24.063125 4.986875 24.063125 0 24 C0 16.08 0 8.16 0 0 Z " fill="#AD9051" transform="translate(362,84)"/>
<path d="M0 0 C6.2548428 0.87114802 10.02660377 2.75252096 14.25 7.5625 C18.8294458 13.94101379 18.8294458 13.94101379 18 19 C15.91674733 21.02224966 14.20766645 22.40014936 11.8125 23.9375 C11.23435547 24.34806641 10.65621094 24.75863281 10.06054688 25.18164062 C7.2863083 27.04053721 5.50063336 28.01904583 2.125 27.890625 C1.42375 27.59671875 0.7225 27.3028125 0 27 C-0.268125 26.278125 -0.53625 25.55625 -0.8125 24.8125 C-2.6286618 20.51106417 -6.21424251 18.56198937 -10 16 C-9.44151174 11.81641523 -6.95553698 8.97370431 -4.4375 5.75 C-4.01275391 5.19570312 -3.58800781 4.64140625 -3.15039062 4.0703125 C-2.10601659 2.70910589 -1.05377536 1.35394167 0 0 Z " fill="#B08F4F" transform="translate(119,64)"/>
<path d="M0 0 C4.888125 -0.061875 4.888125 -0.061875 9.875 -0.125 C10.90093262 -0.14320801 11.92686523 -0.16141602 12.98388672 -0.18017578 C13.79100098 -0.1851709 14.59811523 -0.19016602 15.4296875 -0.1953125 C16.25710449 -0.20578613 17.08452148 -0.21625977 17.93701172 -0.22705078 C20 0 20 0 22 2 C22.1953125 4.8984375 22.1953125 4.8984375 22.125 8.375 C22.10695312 9.51710938 22.08890625 10.65921875 22.0703125 11.8359375 C22.04710937 12.88007812 22.02390625 13.92421875 22 15 C22 16.32 22 17.64 22 19 C22 20.66666667 22 22.33333333 22 24 C19.6875 24.3125 19.6875 24.3125 17 24 C15.25 21.5625 15.25 21.5625 14 19 C12.50256881 17.50256881 11.01175761 17.66797307 8.9375 17.4375 C7.638125 17.293125 6.33875 17.14875 5 17 C5 19.31 5 21.62 5 24 C3.35 24 1.7 24 0 24 C0 16.08 0 8.16 0 0 Z " fill="#906830" transform="translate(210,84)"/>
<path d="M0 0 C0 7.92 0 15.84 0 24 C-1.65 24 -3.3 24 -5 24 C-5 21.69 -5 19.38 -5 17 C-9.29 17 -13.58 17 -18 17 C-18 19.31 -18 21.62 -18 24 C-19.65 24 -21.3 24 -23 24 C-24.20105351 7.05180048 -24.20105351 7.05180048 -20.5 2.4375 C-14.89215137 -1.96949955 -6.58935424 -0.38120231 0 0 Z " fill="#A28449" transform="translate(359,84)"/>
<path d="M0 0 C0.4640625 1.4540625 0.4640625 1.4540625 0.9375 2.9375 C1.69523342 5.84065792 1.69523342 5.84065792 3 7 C2.90997602 9.02408755 2.75358962 11.04544287 2.5625 13.0625 C2.46066406 14.16722656 2.35882813 15.27195312 2.25390625 16.41015625 C2.17011719 17.26480469 2.08632812 18.11945313 2 19 C3.65 18.67 5.3 18.34 7 18 C7.33 18.66 7.66 19.32 8 20 C6.95759826 21.51403595 5.89024679 23.01091702 4.8125 24.5 C4.22082031 25.3353125 3.62914063 26.170625 3.01953125 27.03125 C1 29 1 29 -1.41796875 29.5390625 C-4.90040631 28.81201805 -6.52648757 27.28279593 -9.125 24.875 C-9.97320312 24.10929687 -10.82140625 23.34359375 -11.6953125 22.5546875 C-14.17105336 19.8103917 -15.67395495 17.44771713 -17 14 C-16.71683107 11.57359074 -16.36863055 10.37001317 -14.63305664 8.62792969 C-14.06449951 8.22993164 -13.49594238 7.83193359 -12.91015625 7.421875 C-12.29076172 6.98359375 -11.67136719 6.5453125 -11.03320312 6.09375 C-10.05770508 5.42859375 -10.05770508 5.42859375 -9.0625 4.75 C-8.41603516 4.29109375 -7.76957031 3.8321875 -7.10351562 3.359375 C-2.28941127 0 -2.28941127 0 0 0 Z " fill="#AB8A4B" transform="translate(95,94)"/>
<path d="M0 0 C1.32 0 2.64 0 4 0 C4 0.66 4 1.32 4 2 C4.69931641 2.26248535 5.39863281 2.5249707 6.11914062 2.79541016 C9.24290334 4.10156653 12.130671 5.63487472 15.09375 7.2734375 C15.67412018 7.59356812 16.25449036 7.91369873 16.85244751 8.24353027 C18.7367103 9.28423405 20.61845474 10.3293922 22.5 11.375 C23.80058008 12.0952842 25.10119887 12.81549851 26.40185547 13.53564453 C55.52403095 29.6826873 55.52403095 29.6826873 62 34 C62 35.32 62 36.64 62 38 C60.515 37.505 60.515 37.505 59 37 C59.33 36.67 59.66 36.34 60 36 C59.3287207 35.62939453 58.65744141 35.25878906 57.96582031 34.87695312 C55.32905794 33.4199123 52.69312458 31.96138644 50.05792236 30.50152588 C48.85360842 29.83437799 47.64914083 29.1675074 46.44451904 28.50091553 C39.31139397 24.55139276 32.20503473 20.56145963 25.1484375 16.4765625 C24.51446045 16.11040833 23.8804834 15.74425415 23.22729492 15.36700439 C20.15581168 13.59250804 17.08882194 11.81094756 14.02832031 10.01757812 C12.91811523 9.37498047 11.80791016 8.73238281 10.6640625 8.0703125 C9.68904785 7.50070801 8.7140332 6.93110352 7.70947266 6.34423828 C5.01039299 5.00515622 3.00220528 4.21622195 0 4 C-2.19975942 4.7603252 -2.19975942 4.7603252 -4.28125 6.1484375 C-5.52382568 6.90290161 -5.52382568 6.90290161 -6.79150391 7.67260742 C-7.68530762 8.23439697 -8.57911133 8.79618652 -9.5 9.375 C-11.45501881 10.56757154 -13.41078969 11.75891079 -15.3671875 12.94921875 C-16.42260742 13.59681152 -17.47802734 14.2444043 -18.56542969 14.91162109 C-24.22336592 18.36728409 -29.95406541 21.70098252 -35.67700195 25.04742432 C-37.60322349 26.17475519 -39.52741814 27.3054758 -41.45117188 28.43701172 C-42.64708863 29.1390771 -43.84305007 29.84106638 -45.0390625 30.54296875 C-46.09303223 31.16196045 -47.14700195 31.78095215 -48.23291016 32.41870117 C-54.49976841 36 -54.49976841 36 -58 36 C-58.33 59.43 -58.66 82.86 -59 107 C-59.33 107 -59.66 107 -60 107 C-60 83.24 -60 59.48 -60 35 C-58.35 34.34 -56.7 33.68 -55 33 C-54.54625 32.525625 -54.0925 32.05125 -53.625 31.5625 C-52 30 -52 30 -49.171875 28.84375 C-43.37110345 26.4258931 -38.04156563 23.1006897 -32.625 19.9375 C-31.46634869 19.26519389 -30.3074929 18.59324007 -29.1484375 17.92163086 C-23.94571376 14.90308489 -18.75615597 11.8629817 -13.5859375 8.7890625 C-12.80009277 8.32250244 -12.01424805 7.85594238 -11.20458984 7.37524414 C-9.76739275 6.51945136 -8.33268641 5.65945749 -6.90087891 4.79467773 C-2.21842553 2 -2.21842553 2 0 2 C0 1.34 0 0.68 0 0 Z " fill="#372F1B" transform="translate(104,25)"/>
<path d="M0 0 C6.93 0 13.86 0 21 0 C21 1.65 21 3.3 21 5 C15.72 5 10.44 5 5 5 C5 6.32 5 7.64 5 9 C9.95 9 14.9 9 20 9 C20 10.98 20 12.96 20 15 C15.38 15 10.76 15 6 15 C6 16.32 6 17.64 6 19 C10.95 19 15.9 19 21 19 C21 20.65 21 22.3 21 24 C14.07 24 7.14 24 0 24 C0 16.08 0 8.16 0 0 Z " fill="#855C29" transform="translate(186,84)"/>
<path d="M0 0 C0 0.66 0 1.32 0 2 C1.32 2.33 2.64 2.66 4 3 C6.51969981 10.70731707 6.51969981 10.70731707 5 14 C4.01 14.495 4.01 14.495 3 15 C2.72027344 15.66128906 2.44054687 16.32257813 2.15234375 17.00390625 C1 19 1 19 -1.05859375 19.71484375 C-1.84363281 19.78832031 -2.62867187 19.86179687 -3.4375 19.9375 C-4.21996094 20.02902344 -5.00242187 20.12054688 -5.80859375 20.21484375 C-8.57969622 19.94316704 -9.1854859 19.02679708 -11 17 C-11.99 16.67 -12.98 16.34 -14 16 C-14.33 12.37 -14.66 8.74 -15 5 C-14.01 4.67 -13.02 4.34 -12 4 C-12 2.68 -12 1.36 -12 0 C-7.6835078 -0.76173392 -4.25566547 -1.16063604 0 0 Z " fill="#A37E41" transform="translate(112,84)"/>
<path d="M0 0 C1.19496094 -0.00386719 1.19496094 -0.00386719 2.4140625 -0.0078125 C3.24679688 -0.00007813 4.07953125 0.00765625 4.9375 0.015625 C5.77023438 0.00789063 6.60296875 0.00015625 7.4609375 -0.0078125 C8.25757813 -0.00523438 9.05421875 -0.00265625 9.875 0 C10.60589844 0.00225586 11.33679688 0.00451172 12.08984375 0.00683594 C13.9375 0.265625 13.9375 0.265625 15.9375 2.265625 C16.0625 4.890625 16.0625 4.890625 15.9375 7.265625 C14.6175 7.265625 13.2975 7.265625 11.9375 7.265625 C11.9375 6.605625 11.9375 5.945625 11.9375 5.265625 C7.6475 5.265625 3.3575 5.265625 -1.0625 5.265625 C-1.0625 10.215625 -1.0625 15.165625 -1.0625 20.265625 C2.8975 20.265625 6.8575 20.265625 10.9375 20.265625 C10.9375 19.275625 10.9375 18.285625 10.9375 17.265625 C12.9175 17.265625 14.8975 17.265625 16.9375 17.265625 C17.0625 19.640625 17.0625 19.640625 16.9375 22.265625 C14.52920208 24.67392292 13.94466444 24.52165079 10.65625 24.53125 C9.81449219 24.53382812 8.97273437 24.53640625 8.10546875 24.5390625 C7.22503906 24.53132813 6.34460938 24.52359375 5.4375 24.515625 C4.11685547 24.52722656 4.11685547 24.52722656 2.76953125 24.5390625 C1.92777344 24.53648438 1.08601562 24.53390625 0.21875 24.53125 C-0.55404297 24.52899414 -1.32683594 24.52673828 -2.12304688 24.52441406 C-4.0625 24.265625 -4.0625 24.265625 -6.0625 22.265625 C-6.32128906 20.234375 -6.32128906 20.234375 -6.328125 17.765625 C-6.33070313 16.87875 -6.33328125 15.991875 -6.3359375 15.078125 C-6.32433594 13.6859375 -6.32433594 13.6859375 -6.3125 12.265625 C-6.32023438 11.3375 -6.32796875 10.409375 -6.3359375 9.453125 C-6.33335937 8.56625 -6.33078125 7.679375 -6.328125 6.765625 C-6.32586914 5.9509375 -6.32361328 5.13625 -6.32128906 4.296875 C-5.80782778 0.2666883 -3.53116023 0.01089864 0 0 Z " fill="#855925" transform="translate(167.0625,83.734375)"/>
<path d="M0 0 C1.98 0.66 3.96 1.32 6 2 C6 2.66 6 3.32 6 4 C7.28777344 4.39832031 7.28777344 4.39832031 8.6015625 4.8046875 C12.02910808 6.01023801 15.14173798 7.47244386 18.375 9.125 C19.43460938 9.66382813 20.49421875 10.20265625 21.5859375 10.7578125 C22.38257812 11.16773438 23.17921875 11.57765625 24 12 C24 12.66 24 13.32 24 14 C24.680625 14.268125 25.36125 14.53625 26.0625 14.8125 C29.39710809 16.16053306 32.69743237 17.57536298 36 19 C36 19.66 36 20.32 36 21 C36.85851562 21.26554687 37.71703125 21.53109375 38.6015625 21.8046875 C42.02910808 23.01023801 45.14173798 24.47244386 48.375 26.125 C49.43460938 26.66382813 50.49421875 27.20265625 51.5859375 27.7578125 C52.38257813 28.16773438 53.17921875 28.57765625 54 29 C54 29.66 54 30.32 54 31 C59.63606445 31.40872223 63.15388564 30.3215123 67.875 27.4375 C68.53918945 27.04836426 69.20337891 26.65922852 69.88769531 26.25830078 C72.26886107 24.85570359 74.63418075 23.42832656 77 22 C79.05953376 20.76892531 81.1194529 19.5384952 83.1796875 18.30859375 C87.43322373 15.76525848 91.67980033 13.21083501 95.921875 10.6484375 C96.91767578 10.05256836 97.91347656 9.45669922 98.93945312 8.84277344 C101.06829562 7.56098474 103.18607891 6.26072201 105.29492188 4.94628906 C106.35775391 4.2962793 107.42058594 3.64626953 108.515625 2.9765625 C109.47243164 2.38182129 110.42923828 1.78708008 111.41503906 1.17431641 C114 0 114 0 116.34277344 0.31396484 C116.8896582 0.54035645 117.43654297 0.76674805 118 1 C110.4017904 5.57349296 102.77619894 10.09842671 95.12719727 14.58642578 C90.35853421 17.3927331 85.61112381 20.22539331 80.91062927 23.14485168 C79.20219995 24.20571569 77.4903644 25.26086913 75.77758789 26.31469727 C73.58185436 27.66911546 71.39326043 29.03518962 69.21264648 30.41381836 C68.21305908 31.02749268 67.21347168 31.64116699 66.18359375 32.2734375 C65.30243896 32.82435059 64.42128418 33.37526367 63.51342773 33.94287109 C60.43961997 35.23569165 59.1348034 35.03705678 56 34 C53.74609375 32.9753418 53.74609375 32.9753418 51.4375 31.69921875 C50.56859131 31.22258789 49.69968262 30.74595703 48.80444336 30.25488281 C47.87897705 29.73764648 46.95351074 29.22041016 46 28.6875 C45.03392822 28.15350586 44.06785645 27.61951172 43.07250977 27.06933594 C40.04280552 25.3892563 37.02019102 23.69711559 34 22 C33.05237793 21.46777832 32.10475586 20.93555664 31.12841797 20.38720703 C22.42414722 15.48410092 13.74756179 10.5266994 5.1875 5.375 C4.17042969 4.76398438 3.15335938 4.15296875 2.10546875 3.5234375 C1.41066406 3.02070313 0.71585938 2.51796875 0 2 C0 1.34 0 0.68 0 0 Z " fill="#8C804F" transform="translate(48,130)"/>
<path d="M0 0 C1.65 0 3.3 0 5 0 C5 6.27 5 12.54 5 19 C10.28 19 15.56 19 21 19 C21 20.98 21 22.96 21 25 C14.07 25 7.14 25 0 25 C0 16.75 0 8.5 0 0 Z " fill="#967840" transform="translate(314,84)"/>
<path d="M0 0 C7.59 0 15.18 0 23 0 C23 1.65 23 3.3 23 5 C20.03 5 17.06 5 14 5 C14 11.27 14 17.54 14 24 C12.35 24 10.7 24 9 24 C9 17.73 9 11.46 9 5 C6.03 5 3.06 5 0 5 C0 3.35 0 1.7 0 0 Z " fill="#906B34" transform="translate(234,84)"/>
<path d="M0 0 C6.27 0 12.54 0 19 0 C19 1.32 19 2.64 19 4 C14.05 4 9.1 4 4 4 C4 5.65 4 7.3 4 9 C8.62 9 13.24 9 18 9 C18 10.32 18 11.64 18 13 C13.38 13 8.76 13 4 13 C4 16.3 4 19.6 4 23 C2.68 23 1.36 23 0 23 C0 15.41 0 7.82 0 0 Z " fill="#A37D3F" transform="translate(268,85)"/>
<path d="M0 0 C1.32 0 2.64 0 4 0 C4 0.66 4 1.32 4 2 C4.69931641 2.26248535 5.39863281 2.5249707 6.11914062 2.79541016 C9.24290334 4.10156653 12.130671 5.63487472 15.09375 7.2734375 C15.67412018 7.59356812 16.25449036 7.91369873 16.85244751 8.24353027 C18.7367103 9.28423405 20.61845474 10.3293922 22.5 11.375 C23.80058008 12.0952842 25.10119887 12.81549851 26.40185547 13.53564453 C55.52403095 29.6826873 55.52403095 29.6826873 62 34 C62 35.32 62 36.64 62 38 C60.515 37.505 60.515 37.505 59 37 C59.33 36.67 59.66 36.34 60 36 C59.3287207 35.62939453 58.65744141 35.25878906 57.96582031 34.87695312 C55.32905794 33.4199123 52.69312458 31.96138644 50.05792236 30.50152588 C48.85360842 29.83437799 47.64914083 29.1675074 46.44451904 28.50091553 C39.31139397 24.55139276 32.20503473 20.56145963 25.1484375 16.4765625 C24.51446045 16.11040833 23.8804834 15.74425415 23.22729492 15.36700439 C20.15581168 13.59250804 17.08882194 11.81094756 14.02832031 10.01757812 C12.91811523 9.37498047 11.80791016 8.73238281 10.6640625 8.0703125 C9.68904785 7.50070801 8.7140332 6.93110352 7.70947266 6.34423828 C5.05551186 5.02754085 2.93782865 4.31408785 0 4 C-2.50665618 4.93836754 -2.50665618 4.93836754 -4.8125 6.4375 C-5.60269531 6.91058594 -6.39289063 7.38367187 -7.20703125 7.87109375 C-8.09455078 8.42990234 -8.09455078 8.42990234 -9 9 C-9.66 8.34 -10.32 7.68 -11 7 C-9.54462432 6.16151196 -8.08559627 5.32936066 -6.625 4.5 C-5.81289062 4.0359375 -5.00078125 3.571875 -4.1640625 3.09375 C-2 2 -2 2 0 2 C0 1.34 0 0.68 0 0 Z " fill="#262215" transform="translate(104,25)"/>
<path d="M0 0 C0.99 0.33 1.98 0.66 3 1 C2.67 1.33 2.34 1.66 2 2 C1.90567015 4.20867831 1.88257569 6.42041521 1.88647461 8.63110352 C1.88632858 9.32375305 1.88618256 10.01640259 1.8860321 10.7300415 C1.88673126 13.02969446 1.89452372 15.32926737 1.90234375 17.62890625 C1.90420792 19.21931412 1.90563183 20.80972257 1.90663147 22.40013123 C1.91045671 26.5939593 1.92028705 30.78775295 1.93133545 34.98156738 C1.94154943 39.25788914 1.94612906 43.53421644 1.95117188 47.81054688 C1.96190931 56.20704708 1.97898581 64.60351926 2 73 C1.01 73 0.02 73 -1 73 C-1.02312504 63.62964062 -1.04091591 54.25929099 -1.05181217 44.88890934 C-1.05704065 40.53831541 -1.06413765 36.18774093 -1.07543945 31.8371582 C-1.08626959 27.64209742 -1.0922771 23.44705541 -1.09487724 19.25198174 C-1.09673126 17.64793032 -1.10035144 16.04387997 -1.10573006 14.4398365 C-1.11294219 12.20083485 -1.11399087 9.9619117 -1.11352539 7.72290039 C-1.115746 6.44604874 -1.11796661 5.16919708 -1.12025452 3.85365295 C-1 1 -1 1 0 0 Z " fill="#272012" transform="translate(46,60)"/>
<path d="M0 0 C2.84976717 0.85722984 5.15652888 1.99249558 7.74536133 3.4597168 C8.73487793 4.01675293 9.72439453 4.57378906 10.74389648 5.14770508 C11.80012207 5.75211426 12.85634766 6.35652344 13.94458008 6.97924805 C15.58692627 7.90906494 15.58692627 7.90906494 17.26245117 8.85766602 C27.96533265 14.93575109 38.59307904 21.14339885 49.20727539 27.37475586 C52.33618464 29.20320826 55.48077033 31.00222312 58.63208008 32.79174805 C56.04432156 33.78669722 54.97010249 33.93372549 52.37158203 32.84228516 C51.5461792 32.33963135 50.72077637 31.83697754 49.87036133 31.3190918 C48.92781494 30.75552979 47.98526855 30.19196777 47.01416016 29.61132812 C45.49471802 28.67969849 45.49471802 28.67969849 43.94458008 27.72924805 C41.78960669 26.43805251 39.63331162 25.14906077 37.47583008 23.86206055 C36.35692383 23.19207031 35.23801758 22.52208008 34.08520508 21.83178711 C28.43666163 18.47480788 22.68778398 15.29576378 16.94458008 12.10424805 C14.87792744 10.95495141 12.81150466 9.80524128 10.74536133 8.6550293 C9.87693604 8.17332275 9.00851074 7.69161621 8.11376953 7.1953125 C6.36652586 6.20712717 4.65332248 5.15751599 2.96875 4.06591797 C2.19764893 3.64544189 1.42654785 3.22496582 0.63208008 2.79174805 C-1.92503365 3.48106471 -1.92503365 3.48106471 -4.36791992 4.79174805 C-6.02711888 5.16045893 -7.69268422 5.50456478 -9.36791992 5.79174805 C-3.47389477 -0.30551936 -3.47389477 -0.30551936 0 0 Z " fill="#7E683B" transform="translate(106.367919921875,28.208251953125)"/>
<path d="M0 0 C1.98 0 3.96 0 6 0 C6 7.92 6 15.84 6 24 C4.02 24 2.04 24 0 24 C0 16.08 0 8.16 0 0 Z " fill="#846331" transform="translate(258,84)"/>
<path d="M0 0 C2.4294516 3.6441774 2.16179575 5.71241272 2 10 C2.5775 10.12375 3.155 10.2475 3.75 10.375 C6 11 6 11 7.8125 12.0625 C10.89828337 13.38497859 13.68477932 13.12750849 17 13 C16.1028125 13.2784375 16.1028125 13.2784375 15.1875 13.5625 C11.90018201 15.72273753 11.35145313 18.35107655 10 22 C7.03 22.33 4.06 22.66 1 23 C1.03480469 21.73542969 1.03480469 21.73542969 1.0703125 20.4453125 C1.08835937 19.34960938 1.10640625 18.25390625 1.125 17.125 C1.14820312 16.03445312 1.17140625 14.94390625 1.1953125 13.8203125 C1.30060534 10.8628949 1.30060534 10.8628949 -1 9 C-1.39764263 7.01178687 -1.73775349 5.01055661 -2 3 C-1.34 3 -0.68 3 0 3 C0 2.01 0 1.02 0 0 Z " fill="#1D160B" transform="translate(96,90)"/>
<path d="M0 0 C6.47803034 0.50808081 9.44809752 2.27210425 13.8125 6.9375 C15.26154409 9.45426079 15.23818735 11.14175178 15 14 C11.97623542 14.27440795 10.42537692 14.27285439 7.83203125 12.609375 C7.16558594 11.99578125 6.49914062 11.3821875 5.8125 10.75 C5.13832031 10.14671875 4.46414062 9.5434375 3.76953125 8.921875 C1.06225166 5.98151836 0 4.01835311 0 0 Z " fill="#261E10" transform="translate(119,68)"/>
<path d="M0 0 C1.98 0.66 3.96 1.32 6 2 C6 2.66 6 3.32 6 4 C7.28777344 4.39832031 7.28777344 4.39832031 8.6015625 4.8046875 C12.02910808 6.01023801 15.14173798 7.47244386 18.375 9.125 C19.43460938 9.66382813 20.49421875 10.20265625 21.5859375 10.7578125 C22.38257812 11.16773438 23.17921875 11.57765625 24 12 C24 12.66 24 13.32 24 14 C24.680625 14.268125 25.36125 14.53625 26.0625 14.8125 C29.39710809 16.16053306 32.69743237 17.57536298 36 19 C36 19.66 36 20.32 36 21 C37.2065625 21.309375 37.2065625 21.309375 38.4375 21.625 C43.110473 23.42860362 46.92616004 26.12115309 51 29 C50.01 29.495 50.01 29.495 49 30 C47.08666992 29.20239258 47.08666992 29.20239258 44.73046875 27.89453125 C43.85132813 27.41113281 42.9721875 26.92773438 42.06640625 26.4296875 C41.11636719 25.89601562 40.16632813 25.36234375 39.1875 24.8125 C38.21296875 24.27238281 37.2384375 23.73226562 36.234375 23.17578125 C33.15022726 21.46104274 30.07407976 19.73271604 27 18 C26.01080566 17.4436084 25.02161133 16.8872168 24.00244141 16.31396484 C21.16513366 14.71480677 18.33138996 13.10961025 15.5 11.5 C14.63528076 11.00862549 13.77056152 10.51725098 12.87963867 10.01098633 C3.77263531 4.79273003 3.77263531 4.79273003 0 2 C0 1.34 0 0.68 0 0 Z " fill="#A19A64" transform="translate(48,130)"/>
<path d="M0 0 C8.11320755 5.28301887 8.11320755 5.28301887 11 8 C11 9.32 11 10.64 11 12 C12.65 12.33 14.3 12.66 16 13 C16.33 14.65 16.66 16.3 17 18 C16.34 18 15.68 18 15 18 C15 19.65 15 21.3 15 23 C12.03 22.67 9.06 22.34 6 22 C6.33 21.01 6.66 20.02 7 19 C7.66 18.67 8.32 18.34 9 18 C8.93993922 16.54052295 8.8511311 15.08220728 8.75 13.625 C8.70359375 12.81289062 8.6571875 12.00078125 8.609375 11.1640625 C8.21926984 8.82051218 8.21926984 8.82051218 6.015625 7.8359375 C5.35046875 7.56007813 4.6853125 7.28421875 4 7 C3.67 6.34 3.34 5.68 3 5 C1.35636866 4.27840576 -0.31050386 3.60648579 -2 3 C-1.34 2.01 -0.68 1.02 0 0 Z " fill="#271D0E" transform="translate(108,79)"/>
<path d="M0 0 C0.66 0.33 1.32 0.66 2 1 C1.27087654 1.51612602 1.27087654 1.51612602 0.52702332 2.04267883 C-1.72300934 4.92674517 -1.43957231 7.80617245 -1.43237305 11.31713867 C-1.4425647 12.05884811 -1.45275635 12.80055756 -1.46325684 13.56474304 C-1.49344663 16.01589451 -1.50266163 18.46665559 -1.51171875 20.91796875 C-1.52856105 22.61763311 -1.54671068 24.31728497 -1.56611633 26.016922 C-1.61367142 30.49014381 -1.64344502 34.963315 -1.66955566 39.43670654 C-1.69933349 44.00152589 -1.74587331 48.56617068 -1.79101562 53.13085938 C-1.87711133 62.08714838 -1.94442865 71.04347324 -2 80 C-2.33 80 -2.66 80 -3 80 C-3.06941159 69.86464856 -3.12276615 59.72935336 -3.15543652 49.59381294 C-3.17111411 44.88781483 -3.19239036 40.18197895 -3.22631836 35.47607422 C-3.25883745 30.9373502 -3.27683723 26.39878252 -3.28463173 21.85995102 C-3.29018868 20.12552299 -3.30103963 18.39110383 -3.31719017 16.6567421 C-3.33886587 14.23337342 -3.34197113 11.81065653 -3.34057617 9.38720703 C-3.351362 8.66503998 -3.36214783 7.94287292 -3.3732605 7.19882202 C-3.36076355 5.20169067 -3.36076355 5.20169067 -3 2 C-2.01 1.34 -1.02 0.68 0 0 Z " fill="#635632" transform="translate(42,56)"/>
<path d="M0 0 C3.96 0 7.92 0 12 0 C12 2.31 12 4.62 12 7 C8.04 7 4.08 7 0 7 C0 4.69 0 2.38 0 0 Z " fill="#0B0803" transform="translate(215,89)"/>
<path d="M0 0 C6.33890086 0.60370484 10.22807695 2.94829962 14.375 7.75 C14.91125 8.4925 15.4475 9.235 16 10 C15.67 10.66 15.34 11.32 15 12 C12 11 12 11 9.75 8.5625 C6.42713486 5.46619385 4.3613949 4.94069302 0 4 C-0.33 4.99 -0.66 5.98 -1 7 C-2.95597184 8.39712274 -4.95436401 9.73779907 -7 11 C-5.22054913 6.95579349 -2.60470327 3.53921513 0 0 Z " fill="#8D6C36" transform="translate(119,64)"/>
<path d="M0 0 C0 2.31 0 4.62 0 7 C-3.96 7 -7.92 7 -12 7 C-10.09948612 -0.60205554 -7.1832513 -0.35327465 0 0 Z " fill="#000000" transform="translate(354,89)"/>
<path d="M0 0 C3.32746614 0.67010138 5.95162269 1.91926234 8.921875 3.546875 C9.86546875 4.0625 10.8090625 4.578125 11.78125 5.109375 C12.7609375 5.65078125 13.740625 6.1921875 14.75 6.75 C15.71421875 7.2759375 16.6784375 7.801875 17.671875 8.34375 C23.23214088 11.39585247 28.65714469 14.58158547 34 18 C32.33935547 18.67651367 32.33935547 18.67651367 30 19 C27.43798828 17.8918457 27.43798828 17.8918457 24.5703125 16.17578125 C23.00603516 15.25055664 23.00603516 15.25055664 21.41015625 14.30664062 C20.32605469 13.64857422 19.24195313 12.99050781 18.125 12.3125 C17.04863281 11.67376953 15.97226563 11.03503906 14.86328125 10.37695312 C4.30368825 4.08156075 4.30368825 4.08156075 0 1 C0 0.67 0 0.34 0 0 Z " fill="#978B57" transform="translate(131,43)"/>
<path d="M0 0 C3.96 0 7.92 0 12 0 C12 1.65 12 3.3 12 5 C8.04 5 4.08 5 0 5 C0 3.35 0 1.7 0 0 Z " fill="#120F08" transform="translate(367,98)"/>
<path d="M0 0 C0 0.66 0 1.32 0 2 C-0.94101563 2.53109375 -1.88203125 3.0621875 -2.8515625 3.609375 C-4.10944172 4.32279904 -5.36725047 5.03634735 -6.625 5.75 C-7.24246094 6.09804687 -7.85992187 6.44609375 -8.49609375 6.8046875 C-11.52137665 8.52432199 -14.45680826 10.28463382 -17.31640625 12.26953125 C-20 14 -20 14 -22.3125 13.9375 C-24 13 -24 13 -25 10 C-24.19046875 10.103125 -23.3809375 10.20625 -22.546875 10.3125 C-17.59190477 9.87593875 -14.38923528 7.62695892 -10.25 5 C-8.73660821 4.05889922 -7.22108309 3.12121763 -5.703125 2.1875 C-4.70780762 1.55908203 -4.70780762 1.55908203 -3.69238281 0.91796875 C-2 0 -2 0 0 0 Z " fill="#252215" transform="translate(128,154)"/>
<path d="M0 0 C1.98 0.66 3.96 1.32 6 2 C6 2.66 6 3.32 6 4 C7.28777344 4.39832031 7.28777344 4.39832031 8.6015625 4.8046875 C12.02910808 6.01023801 15.14173798 7.47244386 18.375 9.125 C19.43460938 9.66382813 20.49421875 10.20265625 21.5859375 10.7578125 C22.38257812 11.16773438 23.17921875 11.57765625 24 12 C22.28198242 13.1315918 22.28198242 13.1315918 20 14 C17.81762695 13.26489258 17.81762695 13.26489258 15.48828125 11.89453125 C14.64845703 11.40533203 13.80863281 10.91613281 12.94335938 10.41210938 C12.07517578 9.88423828 11.20699219 9.35636719 10.3125 8.8125 C9.43271484 8.30396484 8.55292969 7.79542969 7.64648438 7.27148438 C1.13740191 3.41220572 1.13740191 3.41220572 0 0 Z " fill="#908554" transform="translate(48,130)"/>
<path d="M0 0 C3.96 0 7.92 0 12 0 C12 1.32 12 2.64 12 4 C8.04 4 4.08 4 0 4 C0 2.68 0 1.36 0 0 Z " fill="#131009" transform="translate(367,89)"/>
<path d="M0 0 C1.32 0 2.64 0 4 0 C4 0.66 4 1.32 4 2 C4.99 2.33 5.98 2.66 7 3 C6.34773438 3.31453125 5.69546875 3.6290625 5.0234375 3.953125 C-0.89862917 6.83628353 -0.89862917 6.83628353 -6.4375 10.375 C-7.283125 10.91125 -8.12875 11.4475 -9 12 C-9.99 11.67 -10.98 11.34 -12 11 C-10.53244059 8.06488119 -8.30733209 7.39238248 -5.4375 5.875 C-4.42558594 5.33617187 -3.41367188 4.79734375 -2.37109375 4.2421875 C-1.58863281 3.83226562 -0.80617187 3.42234375 0 3 C0 2.01 0 1.02 0 0 Z " fill="#312B19" transform="translate(163,129)"/>
<path d="M0 0 C0.66 0 1.32 0 2 0 C1.375 2.4375 1.375 2.4375 0 5 C-1.98 5.33 -3.96 5.66 -6 6 C-6.33 13.92 -6.66 21.84 -7 30 C-7.33 30 -7.66 30 -8 30 C-8 21.75 -8 13.5 -8 5 C-6.35 4.34 -4.7 3.68 -3 3 C-1.98131338 2.01904252 -0.97648017 1.02297922 0 0 Z " fill="#47391F" transform="translate(52,55)"/>
<path d="M0 0 C2.31 0.66 4.62 1.32 7 2 C6.67 3.98 6.34 5.96 6 8 C3.69 7.67 1.38 7.34 -1 7 C-1.04254356 5.00045254 -1.04080783 2.99958364 -1 1 C-0.67 0.67 -0.34 0.34 0 0 Z " fill="#8D652F" transform="translate(100,104)"/>
<path d="M0 0 C0.99 0.33 1.98 0.66 3 1 C2.34 1.66 1.68 2.32 1 3 C0.75456859 5.64787789 0.62650614 8.19903823 0.5859375 10.8515625 C0.56657135 11.62559418 0.5472052 12.39962585 0.5272522 13.19711304 C0.4674017 15.67296275 0.42104989 18.14885883 0.375 20.625 C0.33682518 22.30210377 0.29777375 23.97918784 0.2578125 25.65625 C0.16169591 29.77067353 0.07768561 33.88518886 0 38 C-0.33 38 -0.66 38 -1 38 C-1.02464928 32.74894558 -1.04283568 27.49792455 -1.05493164 22.24682617 C-1.05997218 20.45905979 -1.06680454 18.67129755 -1.07543945 16.88354492 C-1.0875173 14.31948832 -1.09323094 11.75548603 -1.09765625 9.19140625 C-1.10281754 8.3872377 -1.10797882 7.58306915 -1.11329651 6.75453186 C-1.11349215 4.83598285 -1.06201983 2.91754632 -1 1 C-0.67 0.67 -0.34 0.34 0 0 Z " fill="#090704" transform="translate(46,60)"/>
<path d="M0 0 C5.01656959 1.4333056 7.01452882 3.90563952 10 8 C10 8.66 10 9.32 10 10 C5.57299578 8.60865582 3.00586708 6.52115858 0 3 C0 2.01 0 1.02 0 0 Z " fill="#88622E" transform="translate(122,70)"/>
<path d="M0 0 C1.65 0 3.3 0 5 0 C5 0.99 5 1.98 5 3 C4.34 3 3.68 3 3 3 C3 4.65 3 6.3 3 8 C0.03 7.505 0.03 7.505 -3 7 C-2.690625 6.401875 -2.38125 5.80375 -2.0625 5.1875 C-0.89790296 2.91043228 -0.89790296 2.91043228 0 0 Z " fill="#8B632E" transform="translate(120,94)"/>
<path d="M0 0 C4.69016043 -0.73283757 7.54944864 1.19412451 11.42578125 3.515625 C11.94527344 4.00546875 12.46476563 4.4953125 13 5 C13 6.32 13 7.64 13 9 C12.01 8.67 11.02 8.34 10 8 C10.33 7.67 10.66 7.34 11 7 C7.37 5.02 3.74 3.04 0 1 C0 0.67 0 0.34 0 0 Z " fill="#2E2C1C" transform="translate(153,54)"/>
<path d="M0 0 C1.32 0.66 2.64 1.32 4 2 C4 3.98 4 5.96 4 8 C2.35 8.66 0.7 9.32 -1 10 C-1 9.34 -1 8.68 -1 8 C-1.99 7.67 -2.98 7.34 -4 7 C-2.35 7 -0.7 7 1 7 C0.67 4.69 0.34 2.38 0 0 Z " fill="#B2995A" transform="translate(133,75)"/>
<path d="M0 0 C1.32 0.33 2.64 0.66 4 1 C2.47306036 4.05387928 -0.03617325 4.65962073 -3.0625 6.125 C-4.16722656 6.66382813 -5.27195312 7.20265625 -6.41015625 7.7578125 C-7.26480469 8.16773438 -8.11945313 8.57765625 -9 9 C-9.66 8.34 -10.32 7.68 -11 7 C-9.54462432 6.16151196 -8.08559627 5.32936066 -6.625 4.5 C-5.81289062 4.0359375 -5.00078125 3.571875 -4.1640625 3.09375 C-2 2 -2 2 0 2 C0 1.34 0 0.68 0 0 Z " fill="#302816" transform="translate(104,25)"/>
<path d="M0 0 C3.74281699 2.38179263 6.97727468 4.74475735 10 8 C7 8 7 8 4 7 C3.67 6.34 3.34 5.68 3 5 C1.35636866 4.27840576 -0.31050386 3.60648579 -2 3 C-1.34 2.01 -0.68 1.02 0 0 Z " fill="#2B2111" transform="translate(108,79)"/>
<path d="M0 0 C3.65564909 0.68761019 6.51867272 2.25449545 9.75 4.0625 C10.73484375 4.61035156 11.7196875 5.15820312 12.734375 5.72265625 C13.48203125 6.14417969 14.2296875 6.56570312 15 7 C14.34 7.66 13.68 8.32 13 9 C11.01716521 7.88147781 9.03882377 6.75498675 7.0625 5.625 C5.40927734 4.68527344 5.40927734 4.68527344 3.72265625 3.7265625 C1 2 1 2 0 0 Z " fill="#8A7948" transform="translate(117,35)"/>
<path d="M0 0 C4.35535069 1.16142685 6.64619703 2.07699505 9 6 C8.67 6.66 8.34 7.32 8 8 C4.27382578 6.75794193 2.60708543 4.8889325 0 2 C0 1.34 0 0.68 0 0 Z " fill="#9C7F46" transform="translate(126,68)"/>
<path d="M0 0 C5.07612318 -0.61528766 7.82982006 1.38341651 12 4 C12 4.99 12 5.98 12 7 C7.69235185 5.43358249 3.93828536 3.31663844 0 1 C0 0.67 0 0.34 0 0 Z " fill="#322E1D" transform="translate(92,159)"/>
<path d="M0 0 C2.01822917 0.06510417 4.03645833 0.13020833 6.0546875 0.1953125 C6.0546875 2.5053125 6.0546875 4.8153125 6.0546875 7.1953125 C5.7246875 7.1953125 5.3946875 7.1953125 5.0546875 7.1953125 C5.0546875 5.2153125 5.0546875 3.2353125 5.0546875 1.1953125 C1.19331289 2.31082072 -1.24052377 3.22004489 -3.9453125 6.1953125 C-4.6053125 6.1953125 -5.2653125 6.1953125 -5.9453125 6.1953125 C-3.20430126 0.32171699 -3.20430126 0.32171699 0 0 Z " fill="#2E2615" transform="translate(347.9453125,88.8046875)"/>
<path d="M0 0 C4.30764815 1.56641751 8.06171464 3.68336156 12 6 C9.46100862 6.9435441 8.39090725 7.16906025 5.859375 6.07421875 C5.16328125 5.61660156 4.4671875 5.15898438 3.75 4.6875 C3.04359375 4.23761719 2.3371875 3.78773437 1.609375 3.32421875 C1.07828125 2.88722656 0.5471875 2.45023438 0 2 C0 1.34 0 0.68 0 0 Z " fill="#A39B64" transform="translate(153,55)"/>
<path d="M0 0 C4.55737263 0.43820891 7.57653445 0.85041169 11 4 C10.67 4.99 10.34 5.98 10 7 C7.36 5.02 4.72 3.04 2 1 C1.67 1.99 1.34 2.98 1 4 C0.67 2.68 0.34 1.36 0 0 Z " fill="#181209" transform="translate(119,68)"/>
<path d="M0 0 C0 0.66 0 1.32 0 2 C-1.45537568 2.83848804 -2.91440373 3.67063934 -4.375 4.5 C-5.59316406 5.19609375 -5.59316406 5.19609375 -6.8359375 5.90625 C-9 7 -9 7 -11 7 C-11 6.34 -11 5.68 -11 5 C-9.54462432 4.16151196 -8.08559627 3.32936066 -6.625 2.5 C-5.81289062 2.0359375 -5.00078125 1.571875 -4.1640625 1.09375 C-2 0 -2 0 0 0 Z " fill="#1F1B11" transform="translate(128,154)"/>
<path d="M0 0 C1.32 0.33 2.64 0.66 4 1 C3.401875 1.226875 2.80375 1.45375 2.1875 1.6875 C-0.5778987 3.34673922 -1.38565509 5.24216078 -3 8 C-5.1875 9.8125 -5.1875 9.8125 -7 11 C-5.22054913 6.95579349 -2.60470327 3.53921513 0 0 Z " fill="#856330" transform="translate(119,64)"/>
<path d="M0 0 C0.66 0.33 1.32 0.66 2 1 C1.51917969 1.35707031 1.03835937 1.71414062 0.54296875 2.08203125 C-1.68424838 4.85054672 -1.51394011 7.18159023 -1.6875 10.6875 C-1.75324219 11.86699219 -1.81898437 13.04648438 -1.88671875 14.26171875 C-1.92410156 15.16535156 -1.96148437 16.06898437 -2 17 C-2.33 17 -2.66 17 -3 17 C-3.08076963 14.54101345 -3.14037143 12.08466258 -3.1875 9.625 C-3.21263672 8.92632812 -3.23777344 8.22765625 -3.26367188 7.5078125 C-3.29296875 5.4765625 -3.29296875 5.4765625 -3 2 C-2.01 1.34 -1.02 0.68 0 0 Z " fill="#7C6233" transform="translate(42,56)"/>
<path d="M0 0 C4.51478398 0.53115106 7.34666857 2.36620292 11 5 C8 6 8 6 4.8125 4.5625 C3.884375 4.046875 2.95625 3.53125 2 3 C2 2.34 2 1.68 2 1 C1.34 0.67 0.68 0.34 0 0 Z " fill="#1E190E" transform="translate(105,26)"/>
<path d="M0 0 C2.29013653 3.4352048 2.17842973 4.985331 2 9 C1.01 9 0.02 9 -1 9 C-1.33 7.02 -1.66 5.04 -2 3 C-1.34 3 -0.68 3 0 3 C0 2.01 0 1.02 0 0 Z " fill="#3C2D16" transform="translate(96,90)"/>
<path d="M0 0 C0.66 0 1.32 0 2 0 C2.66 1.98 3.32 3.96 4 6 C3.34 6 2.68 6 2 6 C1.67 6.99 1.34 7.98 1 9 C-0.4783226 6.04335481 -0.06032783 3.25770263 0 0 Z " fill="#151109" transform="translate(117,87)"/>
<path d="M0 0 C-0.8125 2.4375 -0.8125 2.4375 -2 5 C-2.99 5.33 -3.98 5.66 -5 6 C-5.66 5.34 -6.32 4.68 -7 4 C-2.25 0 -2.25 0 0 0 Z " fill="#3A2E18" transform="translate(54,55)"/>
</svg>
